<svg xmlns="http://www.w3.org/2000/svg" viewBox="0 0 179.02 101.59"><defs><style>.cls-1,.cls-2{fill:#0a7ec2;}.cls-1,.cls-3{fill-rule:evenodd;}.cls-3{fill:#eb5c2c;}</style></defs><g id="Layer_2" data-name="Layer 2"><g id="Calque_1" data-name="Calque 1"><path class="cls-1" d="M80.42,15.28,7.21,34.81V65.08L80.42,86.31ZM89.51,0,0,23.88V77.71l89.51,23.88L95,100.13v-91l36.57,9.75V77.71H137v-65Z"/><polygon class="cls-1" points="89.51 101.59 94.97 100.13 94.97 9.17 131.54 18.92 131.54 77.71 137 77.71 137 12.66 89.51 0 89.51 94.04 89.51 101.59"/><rect class="cls-2" x="2.66" y="24.38" width="4.55" height="46.77"/><path class="cls-1" d="M11.3,24.08h4.55V76.55H11.3V24.08"/><path class="cls-1" d="M19.94,22.85h4.55V76.12H19.94V22.85"/><path class="cls-1" d="M28.58,21.62h4.55V75.7H28.58V21.62"/><path class="cls-1" d="M37.22,19.67H50.4V83.05H37.22V19.67"/><path class="cls-1" d="M54.5,18.27H59V82.56H54.5V18.27"/><path class="cls-1" d="M63.13,16.87h4.55V84.92H63.13v-68"/><path class="cls-1" d="M71.78,15.47h4.54V87.06H71.78V15.47"/><rect class="cls-2" x="80.42" y="14.36" width="4.55" height="53.33"/><polygon class="cls-1" points="137 89.01 137 20.21 173.56 29.97 173.56 79.32 179.02 77.71 179.02 23.71 131.54 11.04 131.54 90.39 137 89.01"/><polygon class="cls-3" points="140.63 84.42 140.63 88.02 169.93 80.75 169.93 78.04 140.63 84.42"/><path class="cls-3" d="M140.63,76.12V79.7l29.3-5.23v-2.7l-29.3,4.35"/><path class="cls-3" d="M140.63,67.82v3.57l29.3-3.19V65.49l-29.3,2.33"/><path class="cls-3" d="M140.63,59.52v3.56l29.3-1.15V59.22l-29.3.3"/><path class="cls-3" d="M140.63,51.22v3.55l29.3.89V53l-29.3-1.73"/><path class="cls-3" d="M140.63,42.92v3.54l29.3,2.93V46.68l-29.3-3.76"/><path class="cls-3" d="M140.63,34.62v3.53l29.3,5V40.41l-29.3-5.79"/><polygon class="cls-3" points="140.63 26.33 140.63 29.84 169.93 36.85 169.93 34.14 140.63 26.33"/><polygon class="cls-3" points="98.61 95.35 98.61 98.94 127.9 91.68 127.9 88.97 98.61 95.35"/><path class="cls-3" d="M98.61,86.45V90l29.29-5.68V81.65l-29.29,4.8"/><path class="cls-3" d="M98.61,77.56v3.57L127.9,77V74.33L98.61,77.56"/><path class="cls-3" d="M98.61,68.66v3.57l29.29-2.51V67L98.61,68.66"/><path class="cls-3" d="M98.61,59.76v3.56l29.29-.92V59.69l-29.29.07"/><path class="cls-3" d="M98.61,50.87v3.55l29.29.66V52.37l-29.29-1.5"/><path class="cls-3" d="M98.61,42v3.54l29.29,2.25V45.05L98.61,42"/><path class="cls-3" d="M98.61,33.07V36.6l29.29,3.84V37.73L98.61,33.07"/><path class="cls-3" d="M98.61,24.18V27.7l29.29,5.42V30.41L98.61,24.18"/><polygon class="cls-3" points="98.61 15.28 98.61 18.8 127.9 25.8 127.9 23.09 98.61 15.28"/></g></g></svg>